<?xml version="1.0" encoding="utf-8"?>
<!-- Generator: Adobe Illustrator 20.1.0, SVG Export Plug-In . SVG Version: 6.00 Build 0)  -->
<svg version="1.1" id="Layer_1" xmlns="http://www.w3.org/2000/svg" xmlns:xlink="http://www.w3.org/1999/xlink" x="0px" y="0px"
	 viewBox="0 0 470 117.2" style="enable-background:new 0 0 470 117.2;" xml:space="preserve">
<style type="text/css">
	.st0{fill:#004B8D;}
</style>
<g>
	<path class="st0" d="M163,78l15.8-32.3h3.3l16,32.3h-4.4l-4.4-8.7h-17.9l-4.3,8.7H163z M173.4,65.5h14.2l-7.1-14.3L173.4,65.5z"/>
	<path class="st0" d="M203,78V45.7h18.5c3.2,0,5.6,0.8,7.4,2.4c1.8,1.6,2.7,3.8,2.7,6.6c0,2.3-0.7,4.4-2.1,6s-3.3,2.7-5.6,3.1
		l8.1,14.2h-4.5l-8.1-14.2H207V78H203z M207,60.1h14.3c2,0,3.6-0.4,4.6-1.3c1-0.9,1.6-2.2,1.6-4c0-1.7-0.5-3-1.6-4
		c-1-0.9-2.5-1.4-4.4-1.4H207V60.1z"/>
	<path class="st0" d="M242.1,45.7v20.9c0,3.4,0.6,5.6,1.9,6.8s3.7,1.7,7.4,1.7s6.2-0.6,7.4-1.7s1.9-3.4,1.9-6.8V45.7h4v22
		c0,4-1,6.8-3.1,8.6s-5.5,2.6-10.2,2.6s-8.2-0.9-10.2-2.6s-3.1-4.6-3.1-8.6v-22H242.1z"/>
	<path class="st0" d="M270.6,73.1l2.3-3.5c2.3,1.8,4.7,3.1,7.1,4.1s4.9,1.4,7.3,1.4c3,0,5.4-0.6,7.3-1.9s2.8-2.9,2.8-4.9
		c0-1.6-0.7-2.9-2-3.9s-3.2-1.6-5.6-1.8c-0.6-0.1-1.4-0.1-2.5-0.2c-5.3-0.4-8.9-1-10.9-1.9c-1.5-0.7-2.6-1.7-3.4-2.8
		s-1.2-2.4-1.2-3.9c0-2.6,1.2-4.7,3.5-6.4c2.3-1.7,5.3-2.5,9.1-2.5c2.7,0,5.4,0.4,8,1.3c2.6,0.9,5.1,2.2,7.5,3.9l-2.3,3.3
		c-2-1.6-4.1-2.8-6.3-3.6c-2.2-0.8-4.5-1.2-6.8-1.2c-2.4,0-4.5,0.5-6,1.4c-1.6,0.9-2.4,2.1-2.4,3.6c0,0.6,0.1,1.1,0.4,1.6
		s0.6,0.9,1.2,1.3c1.3,1,4.2,1.6,8.6,1.9c2,0.1,3.6,0.2,4.7,0.4c3.3,0.4,5.9,1.4,7.8,3.2s2.9,3.9,2.9,6.4c0,3-1.3,5.5-3.9,7.5
		s-6.1,2.9-10.3,2.9c-3.2,0-6.2-0.5-9-1.4S273.1,75.1,270.6,73.1z"/>
</g>
</svg>
